<svg width="185" height="40" viewBox="0 0 185 40" xmlns="http://www.w3.org/2000/svg"><title>Imported Layers</title><g fill="#FFF" fill-rule="evenodd"><path d="M45.255 34.043c-2.98 0-6.17-.82-8.946-2.094-1.87-.856-3.84-1.944-5.87-3.233 2.03-1.29 4-2.375 5.87-3.232 2.775-1.275 5.966-2.093 8.945-2.093 3.128 0 6.023.902 7.96 3.123l.065.08c.478.622.72 1.376.724 2.122-.005.748-.246 1.502-.726 2.125l-.064.076c-1.936 2.222-4.83 3.125-7.96 3.125M49.65.113c-6.613 0-13.875 1.86-20.544 5.263-4.37 2.23-8.972 5.106-13.684 8.544-.745.544-1.69 1.26-2.755 2.076-3.428-2.56-6.797-5.065-8.375-6.19-.475-.34-1.023-.504-1.566-.504-.843 0-1.673.393-2.2 1.13-.866 1.214-.584 2.898.63 3.765 1.356.97 4.11 3.013 7.075 5.224-2.726 2.11-5.452 4.215-7.077 5.376-1.213.866-1.495 2.552-.628 3.765.526.738 1.357 1.13 2.2 1.13.542 0 1.09-.16 1.565-.5 1.837-1.313 4.908-3.692 7.88-5.993l.548-.425c2.685 2.008 5.142 3.84 6.41 4.765l.01.006.037.026.07.05.017.01c.457.294 1.093.722 1.805 1.214-1.264.94-2.463 1.822-3.07 2.21-1.254.805-1.62 2.475-.814 3.73.515.804 1.384 1.24 2.275 1.24.498 0 1.002-.137 1.454-.426.988-.633 2.81-2 4.738-3.442l.096-.072c.367.252.698.475.98.66 2.52 1.652 4.986 3.037 7.33 4.112 3.645 1.673 7.62 2.585 11.248 2.585.133 0 .265 0 .398-.002 4.818-.09 8.824-1.81 11.58-4.97l.12-.144.103-.123.006-.01c1.185-1.48 1.853-3.342 1.888-5.284v-.38c-.035-1.938-.702-3.8-1.885-5.28l-.008-.012-.108-.126-.115-.14c-2.756-3.162-6.762-4.882-11.58-4.97-.133-.004-.267-.005-.4-.005-3.627 0-7.604.913-11.246 2.585-2.344 1.077-4.81 2.46-7.33 4.113-.29.192-.66.45-1.084.754-1.294-.9-2.553-1.77-3.39-2.31-1.066-.78-2.947-2.178-5.09-3.78.54-.408 1.024-.77 1.44-1.073 4.483-3.27 8.842-5.995 12.957-8.096 5.326-2.72 11.838-4.716 18.096-4.716 6.396 0 12.527 2.084 16.858 7.612 2.872 3.666 2.946 9.396.173 13.328-.858 1.22-.57 2.9.65 3.76.472.334 1.015.494 1.554.494.847 0 1.682-.396 2.208-1.142 2.002-2.84 3.073-6.392 3.012-10.003-.06-3.62-1.25-7.09-3.347-9.767C65.966 3.628 58.913.298 50.373.122c-.24-.005-.483-.008-.725-.008" fill-opacity=".7"/><path d="M5.415 11.992c0 1.49-1.21 2.698-2.697 2.698S.022 13.483.022 11.992c0-1.49 1.21-2.696 2.696-2.696 1.488 0 2.697 1.207 2.697 2.696M5.415 26.986c0 1.49-1.21 2.698-2.697 2.698S.022 28.477.022 26.986c0-1.486 1.21-2.694 2.696-2.694 1.488 0 2.697 1.208 2.697 2.694M22.144 33.326c0 1.49-1.208 2.697-2.7 2.697-1.485 0-2.693-1.208-2.693-2.697 0-1.49 1.21-2.695 2.695-2.695 1.49 0 2.7 1.206 2.7 2.696M71.592 27.932c0 1.49-1.21 2.7-2.7 2.7-1.485 0-2.694-1.21-2.694-2.7 0-1.49 1.21-2.694 2.695-2.694 1.49 0 2.7 1.205 2.7 2.694M109.66 30.64v-1.197h9.258v-3.97h-8.19v-1.41h8.19v-2.876h-7.856V9.257h19.79v10.18c0 .95-.798 1.75-1.743 1.75h-6.14v2.875h8.027v1.41h-8.028v3.97h9.19v1.197h-22.5zm13.31-10.645h4.154V15.99h-4.155v4.005zm-8.3 0h4.248V15.99h-4.247v4.005zm8.3-5.415h4.154v-4.13h-4.155v4.13zm-8.3 0h4.248v-4.13h-4.247v4.13zM161.778 29.18h22.548v1.406h-22.548V29.18zM182.884 25.123v-11.68h-3.186l2.015-3.51h-10.72l.662-1.067h-5.112l-1.53 2.475h10.783l-1.206 2.103h-11.366v13.905h17.08c1.447 0 2.58-.977 2.58-2.225zm-7.95-10.485h4.19v5.053h-4.19V14.64zm-7.954 0h4.193v5.053h-4.193V14.64zm0 6.463h4.193v5.056h-4.193V21.1zm7.953 0h4.192v5.056h-4.192V21.1zM158.405 13.832h-8.883V9.258h-4.785v4.574h-8.88v1.41h8.503l-8.503 15.397h4.65l6.622-11.996 6.624 11.995h4.65L149.9 15.24h8.505v-1.41M100.983 12.383H94.52v14.98h4.95c.82 0 1.513-.83 1.513-1.812V12.384zm-4.077 1.236h1.764V26.1h-1.764V13.62z"/><path d="M94.22 10.232h8.45v19.143h-1.8v1.264h3.66c.837 0 1.514-.804 1.514-1.788v-18.62h1.026V8.995H94.22v1.237M84.62 8.97v21.72h2.748V10.158h2.865l-1.088 8.01 1.088 8.01h-1.677v1.185h3.535c.946 0 .99-.697.966-.992l-1.113-8.203L93.19 8.97h-8.57"/></g></svg>