<svg xmlns="http://www.w3.org/2000/svg" width="208" height="40" viewBox="0 0 208 40"><g fill="#FFF"><path d="M133.84 26.105h8.996v-1.522h-8.997v-3.338h7.177c1.02 0 1.883-.86 1.883-1.884V8.17h-22.328v13.075h8.904v3.338h-9.045v1.522h9.046v3.99h-10.2v1.518h24.814v-1.52h-10.25v-3.988zm0-16.65h5.042v4.672h-5.043v-4.67zm0 6.19h5.042v4.314h-5.043v-4.314zm-4.364 4.314h-5.016v-4.314h5.016v4.313zm0-5.834h-5.016v-4.67h5.016v4.67zM163.245 8.145h-5.4V13.5H147.83v1.518h9.59l-9.59 16.595h5.244l7.47-12.927 7.47 12.927h5.245l-9.59-16.595h9.59v-1.52h-10.015zM109.485 11.822h-7.718V27.97h6.085c.887 0 1.633-.896 1.633-1.954V11.822zm-2.495 14.786h-2.65V13.153h2.65v13.455z"/><path d="M101.195 9.502h10.357v20.75h-1.94v1.36h3.945c.9 0 1.632-.863 1.632-1.924V9.502h1.104V8.17h-15.1v1.332zM90.847 8.145v23.47h2.965V9.424h3.086l-1.17 8.632 1.17 8.635h-1.806v1.278H98.9c1.02 0 1.068-.754 1.04-1.072l-1.2-8.84 1.344-9.913h-9.237zM203.16 17.562h-11.173V9.688h8.612V8.17h-22.263v1.518h9.132v7.874h-11.693v1.52h11.692v11.172h-4.623v1.36h7.51c.9 0 1.63-.864 1.63-1.925V19.08h11.173v-1.518z"/></g><path opacity=".7" fill="#FFF" d="M65.936 34.255a7.984 7.984 0 0 0 1.35-3.88c.007-.08.01-.156.015-.234.005-.078.014-.155.016-.233 0-.06-.004-.117-.004-.177 0-.06.005-.118.004-.178 0-.077-.01-.154-.015-.232-.004-.08-.007-.157-.014-.235a8.452 8.452 0 0 0-.065-.576l-.01-.064a8.013 8.013 0 0 0-1.274-3.242c-.016-.024-.033-.05-.05-.073-.097-.14-.2-.278-.305-.413-.032-.042-.06-.086-.094-.128-.04-.05-.08-.093-.123-.138-.032-.037-.06-.076-.092-.112-2.603-2.892-6.374-4.462-10.903-4.543-3.497-.064-7.37.767-10.907 2.34-2.194.976-4.502 2.228-6.86 3.725-.23.147-.55.364-.937.638l-.96-.65c-2.473-1.676-5.03-3.407-5.95-3.98a2.692 2.692 0 0 0-2.84 4.572c.753.468 2.987 1.977 5.126 3.426-2.112 1.553-4.407 3.237-5.126 3.684a2.69 2.69 0 0 0 2.84 4.57c.866-.537 2.844-1.986 5.764-4.134l1.26-.927c.342.23.622.412.823.54 2.358 1.496 4.666 2.75 6.86 3.726 3.413 1.517 7.138 2.343 10.536 2.343.124 0 .25-.002.372-.005 4.53-.08 8.3-1.652 10.904-4.544.032-.034.06-.073.09-.11.043-.044.085-.09.125-.138.035-.04.063-.087.096-.13.107-.133.208-.27.305-.41a.977.977 0 0 1 .048-.077zm-11.98.035c-2.763 0-5.73-.737-8.31-1.884-1.62-.72-3.32-1.62-5.07-2.677 1.75-1.06 3.45-1.96 5.07-2.68 5.27-2.34 12.146-2.975 15.626.89.023.024.043.053.064.08.393.503.59 1.11.596 1.71a2.815 2.815 0 0 1-.592 1.702c-.023.03-.044.06-.07.085-1.774 1.973-4.434 2.773-7.313 2.773z"/><path fill="#FFF" d="M75.264 30.544a2.69 2.69 0 0 1-2.195-4.24c2.765-3.92 2.69-9.634-.174-13.288-8.542-10.902-24.11-8.37-34.845-2.887-3.004 1.533-6.156 3.41-9.367 5.576a2.69 2.69 0 0 1-3.01-4.46c3.39-2.29 6.732-4.277 9.93-5.91C42.493 1.816 50.02-.042 56.805.098c8.515.176 15.544 3.496 20.327 9.6 2.092 2.67 3.276 6.127 3.336 9.735.06 3.6-1.007 7.143-3.002 9.97a2.692 2.692 0 0 1-2.202 1.14zM21.92 20.142a2.362 2.362 0 0 0 .248-.48 2.678 2.678 0 0 0 .176-.756 2.896 2.896 0 0 0-.05-.772 2.663 2.663 0 0 0-.42-.974c-.027-.04-.045-.082-.074-.12-.022-.027-.05-.05-.073-.076a2.99 2.99 0 0 0-.4-.388c-.028-.022-.05-.05-.08-.07-4.12-2.98-8.297-5.996-10.143-7.27a2.692 2.692 0 0 0-3.06 4.427c1.372.947 4.102 2.91 7.134 5.097-2.753 2.133-5.523 4.272-7.167 5.445a2.69 2.69 0 0 0 1.566 4.88c.542 0 1.087-.16 1.562-.5 1.83-1.307 4.892-3.678 7.852-5.97.79-.613 1.575-1.222 2.324-1.8.01-.005.015-.014.024-.02.123-.1.237-.206.343-.327.024-.026.044-.053.067-.08.034-.04.07-.08.103-.125.028-.038.045-.082.07-.12z" opacity=".7"/><circle fill="#FFF" cx="9.588" cy="11.462" r="2.703"/><circle fill="#FFF" cx="9.588" cy="26.38" r="2.703"/><path fill="#FFF" d="M78.022 27.86a2.707 2.707 0 0 1-2.706 2.706 2.705 2.705 0 0 1 0-5.41 2.706 2.706 0 0 1 2.706 2.704zM30.05 35.82a2.707 2.707 0 0 1-2.705 2.706 2.704 2.704 0 1 1 2.705-2.707z"/></svg>